<svg xmlns="http://www.w3.org/2000/svg" width="980" height="620" viewBox="0 0 980 620">
<rect width="100%" height="100%" fill="#ffffff"/>
<style>text{font-family:Arial, Helvetica, sans-serif;fill:#050315}.muted{fill:#5f5b73}.title{font-weight:700;font-size:25px}.subtitle{font-size:15px}.axis{stroke:#050315;stroke-width:1.2}.grid{stroke:#d8d6ea;stroke-width:1}.label{font-size:14px}.tick{font-size:12px;fill:#5f5b73}.note{font-size:12px;fill:#5f5b73}</style>
<text x="48" y="46" class="title">Figure 4. Selected action frequencies by stage</text>
<text x="48" y="73" class="subtitle muted">Counts out of 41 completed sessions. Use as an optional presentation figure.</text>
<line x1="240.0" y1="87" x2="240.0" y2="500" class="grid"/>
<text x="240.0" y="524" text-anchor="middle" class="tick">0</text>
<line x1="401.0" y1="87" x2="401.0" y2="500" class="grid"/>
<text x="401.0" y="524" text-anchor="middle" class="tick">10</text>
<line x1="562.0" y1="87" x2="562.0" y2="500" class="grid"/>
<text x="562.0" y="524" text-anchor="middle" class="tick">20</text>
<line x1="722.9" y1="87" x2="722.9" y2="500" class="grid"/>
<text x="722.9" y="524" text-anchor="middle" class="tick">30</text>
<line x1="883.9" y1="87" x2="883.9" y2="500" class="grid"/>
<text x="883.9" y="524" text-anchor="middle" class="tick">40</text>
<line x1="240" y1="500" x2="900" y2="500" class="axis"/>
<text x="224" y="114" text-anchor="end" class="label">Price drop: viewed</text>
<rect x="240" y="95" width="338.0" height="26" fill="#3930ed"/>
<text x="588.0" y="114" class="label">21</text>
<text x="224" y="150" text-anchor="end" class="label">Price drop: postponed</text>
<rect x="240" y="131" width="193.2" height="26" fill="#8a86f6"/>
<text x="443.2" y="150" class="label">12</text>
<text x="224" y="186" text-anchor="end" class="label">Price drop: closed</text>
<rect x="240" y="167" width="128.8" height="26" fill="#8a86f6"/>
<text x="378.8" y="186" class="label">8</text>
<text x="224" y="222" text-anchor="end" class="label">Detail: bought now</text>
<rect x="240" y="203" width="241.5" height="26" fill="#8a86f6"/>
<text x="491.5" y="222" class="label">15</text>
<text x="224" y="258" text-anchor="end" class="label">Detail: added to cart</text>
<rect x="240" y="239" width="144.9" height="26" fill="#8a86f6"/>
<text x="394.9" y="258" class="label">9</text>
<text x="224" y="294" text-anchor="end" class="label">Detail: checked reviews</text>
<rect x="240" y="275" width="177.1" height="26" fill="#8a86f6"/>
<text x="427.1" y="294" class="label">11</text>
<text x="224" y="330" text-anchor="end" class="label">Detail: checked rules</text>
<rect x="240" y="311" width="96.6" height="26" fill="#8a86f6"/>
<text x="346.6" y="330" class="label">6</text>
<text x="224" y="366" text-anchor="end" class="label">Checkout: kept default</text>
<rect x="240" y="347" width="434.6" height="26" fill="#3930ed"/>
<text x="684.6" y="366" class="label">27</text>
<text x="224" y="402" text-anchor="end" class="label">Checkout: cancelled default</text>
<rect x="240" y="383" width="128.8" height="26" fill="#8a86f6"/>
<text x="378.8" y="402" class="label">8</text>
<text x="224" y="438" text-anchor="end" class="label">Final: submitted order</text>
<rect x="240" y="419" width="466.8" height="26" fill="#3930ed"/>
<text x="716.8" y="438" class="label">29</text>
<text x="224" y="474" text-anchor="end" class="label">Final: stopped</text>
<rect x="240" y="455" width="96.6" height="26" fill="#8a86f6"/>
<text x="346.6" y="474" class="label">6</text>
<text x="570.0" y="565" text-anchor="middle" class="note">Number of participants</text>
</svg>