<svg xmlns="http://www.w3.org/2000/svg" width="920" height="560" viewBox="0 0 920 560">
<rect width="100%" height="100%" fill="#ffffff"/>
<style>text{font-family:Arial, Helvetica, sans-serif;fill:#050315}.muted{fill:#5f5b73}.title{font-weight:700;font-size:25px}.subtitle{font-size:15px}.axis{stroke:#050315;stroke-width:1.2}.grid{stroke:#d8d6ea;stroke-width:1}.label{font-size:14px}.tick{font-size:12px;fill:#5f5b73}.note{font-size:12px;fill:#5f5b73}</style>
<text x="48" y="46" class="title">Figure 2. Rule-based self-perception / choice gaps</text>
<text x="48" y="73" class="subtitle muted">Number of participants with each gap indicator, N = 41.</text>
<line x1="245.0" y1="90" x2="245.0" y2="440" class="grid"/>
<text x="245.0" y="464" text-anchor="middle" class="tick">0</text>
<line x1="388.9" y1="90" x2="388.9" y2="440" class="grid"/>
<text x="388.9" y="464" text-anchor="middle" class="tick">10</text>
<line x1="532.8" y1="90" x2="532.8" y2="440" class="grid"/>
<text x="532.8" y="464" text-anchor="middle" class="tick">20</text>
<line x1="676.7" y1="90" x2="676.7" y2="440" class="grid"/>
<text x="676.7" y="464" text-anchor="middle" class="tick">30</text>
<line x1="820.6" y1="90" x2="820.6" y2="440" class="grid"/>
<text x="820.6" y="464" text-anchor="middle" class="tick">40</text>
<line x1="245" y1="90" x2="245" y2="440" class="axis"/>
<line x1="245" y1="440" x2="835" y2="440" class="axis"/>
<text x="227" y="124" text-anchor="end" class="label">Any gap</text>
<rect x="245" y="100" width="446.1" height="36" fill="#3930ed"/>
<text x="703.1" y="124" class="label">31 (75.6%)</text>
<text x="227" y="188" text-anchor="end" class="label">Budget-control gap</text>
<rect x="245" y="164" width="316.6" height="36" fill="#8a86f6"/>
<text x="573.6" y="188" class="label">22 (53.7%)</text>
<text x="227" y="252" text-anchor="end" class="label">Default-option gap</text>
<rect x="245" y="228" width="316.6" height="36" fill="#8a86f6"/>
<text x="573.6" y="252" class="label">22 (53.7%)</text>
<text x="227" y="316" text-anchor="end" class="label">Time-pressure gap</text>
<rect x="245" y="292" width="287.8" height="36" fill="#8a86f6"/>
<text x="544.8" y="316" class="label">20 (48.8%)</text>
<text x="227" y="380" text-anchor="end" class="label">Information-checking gap</text>
<rect x="245" y="356" width="273.4" height="36" fill="#8a86f6"/>
<text x="530.4" y="380" class="label">19 (46.3%)</text>
<text x="540.0" y="500" text-anchor="middle" class="note">Count of participants</text>
</svg>