<svg xmlns="http://www.w3.org/2000/svg" width="900" height="560" viewBox="0 0 900 560">
<rect width="100%" height="100%" fill="#ffffff"/>
<style>text{font-family:Arial, Helvetica, sans-serif;fill:#050315}.muted{fill:#5f5b73}.title{font-weight:700;font-size:25px}.subtitle{font-size:15px}.axis{stroke:#050315;stroke-width:1.2}.grid{stroke:#d8d6ea;stroke-width:1}.label{font-size:14px}.tick{font-size:12px;fill:#5f5b73}.note{font-size:12px;fill:#5f5b73}</style>
<text x="48" y="46" class="title">Figure 3. Mismatch count and recalibration</text>
<text x="48" y="73" class="subtitle muted">Recalibration = pre-test score minus post-test score. Larger values mean a larger drop in self-rating.</text>
<line x1="110.0" y1="95" x2="110.0" y2="430" class="grid"/>
<text x="110.0" y="454" text-anchor="middle" class="tick">0</text>
<line x1="290.0" y1="95" x2="290.0" y2="430" class="grid"/>
<text x="290.0" y="454" text-anchor="middle" class="tick">1</text>
<line x1="470.0" y1="95" x2="470.0" y2="430" class="grid"/>
<text x="470.0" y="454" text-anchor="middle" class="tick">2</text>
<line x1="650.0" y1="95" x2="650.0" y2="430" class="grid"/>
<text x="650.0" y="454" text-anchor="middle" class="tick">3</text>
<line x1="830.0" y1="95" x2="830.0" y2="430" class="grid"/>
<text x="830.0" y="454" text-anchor="middle" class="tick">4</text>
<line x1="110" y1="430.0" x2="830" y2="430.0" class="grid"/>
<text x="94" y="434.0" text-anchor="end" class="tick">0.0</text>
<line x1="110" y1="382.1" x2="830" y2="382.1" class="grid"/>
<text x="94" y="386.1" text-anchor="end" class="tick">0.2</text>
<line x1="110" y1="334.3" x2="830" y2="334.3" class="grid"/>
<text x="94" y="338.3" text-anchor="end" class="tick">0.4</text>
<line x1="110" y1="286.4" x2="830" y2="286.4" class="grid"/>
<text x="94" y="290.4" text-anchor="end" class="tick">0.6</text>
<line x1="110" y1="238.6" x2="830" y2="238.6" class="grid"/>
<text x="94" y="242.6" text-anchor="end" class="tick">0.8</text>
<line x1="110" y1="190.7" x2="830" y2="190.7" class="grid"/>
<text x="94" y="194.7" text-anchor="end" class="tick">1.0</text>
<line x1="110" y1="142.9" x2="830" y2="142.9" class="grid"/>
<text x="94" y="146.9" text-anchor="end" class="tick">1.2</text>
<line x1="110" y1="95.0" x2="830" y2="95.0" class="grid"/>
<text x="94" y="99.0" text-anchor="end" class="tick">1.4</text>
<line x1="110" y1="95" x2="110" y2="430" class="axis"/>
<line x1="110" y1="430" x2="830" y2="430" class="axis"/>
<circle cx="110.0" cy="422.1" r="17.0" fill="#3930ed" fill-opacity="0.78"/>
<text x="110.0" y="404.1" text-anchor="middle" class="tick">n=10</text>
<circle cx="290.0" cy="385.5" r="16.1" fill="#3930ed" fill-opacity="0.78"/>
<text x="290.0" y="367.5" text-anchor="middle" class="tick">n=9</text>
<circle cx="470.0" cy="310.4" r="11.6" fill="#3930ed" fill-opacity="0.78"/>
<text x="470.0" y="292.4" text-anchor="middle" class="tick">n=4</text>
<circle cx="650.0" cy="230.7" r="13.4" fill="#3930ed" fill-opacity="0.78"/>
<text x="650.0" y="212.7" text-anchor="middle" class="tick">n=6</text>
<circle cx="830.0" cy="124.4" r="18.8" fill="#3930ed" fill-opacity="0.78"/>
<text x="830.0" y="106.4" text-anchor="middle" class="tick">n=12</text>
<polyline points="110.0,422.1 290.0,385.5 470.0,310.4 650.0,230.7 830.0,124.4" fill="none" stroke="#050315" stroke-width="2"/>
<text x="470.0" y="505" text-anchor="middle" class="note">Mismatch count</text>
<text x="32" y="262.5" transform="rotate(-90 32 262.5)" text-anchor="middle" class="note">Mean recalibration</text>
<text x="830" y="506" text-anchor="end" font-size="15" font-weight="700" fill="#3930ed">r = 0.758</text>
</svg>